# xmcd CD database file
#
# Track frame offsets:
#	150
#	11755
#	34298
#	52630
#	77043
#	94595
#	111963
#	132610
#	147545
#	168330
#	185738
#	212853
#	235460
#	261320
#	274765
#	298565
#	302873
#	336178
#
# Disc length: 4685 seconds
#
# Revision: 4
# Processed by: cddbd v1.5.2PL0 Copyright (c) Steve Scherf et al.
# Submitted via: CDex 1.51
#
DISCID=16124b12
DTITLE=Enrique Granados - Danzas españolas, Escenas romanticas  (Jean-François Heisser, piano)
DYEAR=1991
DGENRE=Piano
TTITLE0=12 Danzas españolas, Op.37 - Minuetto
TTITLE1=12 Danzas españolas, Op.37 - Oriental
TTITLE2=12 Danzas españolas, Op.37 - Zarabanda
TTITLE3=12 Danzas españolas, Op.37 - Villanesca
TTITLE4=12 Danzas españolas, Op.37 - Andaluza
TTITLE5=12 Danzas españolas, Op.37 - Rondalla aragonese
TTITLE6=12 Danzas españolas, Op.37 - Valenciana
TTITLE7=12 Danzas españolas, Op.37 - Asturiana
TTITLE8=12 Danzas españolas, Op.37 - Mazurca
TTITLE9=12 Danzas españolas, Op.37 - Tonadilla: ''Danza triste''
TTITLE10=12 Danzas españolas, Op.37 - Zambra
TTITLE11=12 Danzas españolas, Op.37 - Arabesca
TTITLE12=6 Escenas romanticas - Mazurca
TTITLE13=6 Escenas romanticas - Berceuse
TTITLE14=6 Escenas romanticas - El poeta y el ruisenor
TTITLE15=6 Escenas romanticas - Allegretto
TTITLE16=6 Escenas romanticas - Allegro appasionato
TTITLE17=6 Escenas romanticas - Epilogo
EXTD=YEAR: 1991
EXTT0=
EXTT1=
EXTT2=
EXTT3=
EXTT4=
EXTT5=
EXTT6=
EXTT7=
EXTT8=
EXTT9=
EXTT10=
EXTT11=
EXTT12=
EXTT13=
EXTT14=
EXTT15=
EXTT16=
EXTT17=
PLAYORDER=
